<svg width="48" height="48" viewBox="0 0 48 48" fill="none" xmlns="http://www.w3.org/2000/svg">
<path d="M13.1197 46.299C12.1713 46.299 11.3645 45.9675 10.6992 45.3045C10.0338 44.6415 9.70117 43.8375 9.70117 42.8925V5.10746C9.70117 4.18413 10.0402 3.38363 10.7182 2.70596C11.3958 2.02796 12.1963 1.68896 13.1197 1.68896H34.7807C35.729 1.68896 36.5358 2.02163 37.2012 2.68696C37.8665 3.3523 38.1992 4.15913 38.1992 5.10746V12.34C38.7992 12.475 39.3012 12.785 39.7052 13.27C40.1092 13.755 40.3112 14.3 40.3112 14.905V18.59C40.3112 19.2393 40.1092 19.8093 39.7052 20.3C39.3012 20.7906 38.7992 21.1021 38.1992 21.2345V42.8925C38.1992 43.8375 37.8665 44.6415 37.2012 45.3045C36.5358 45.9675 35.729 46.299 34.7807 46.299H13.1197ZM13.1077 42.9045H34.7927V5.09546H13.1077V42.9045ZM23.9502 12.239C24.3772 12.239 24.7458 12.0838 25.0562 11.7735C25.3665 11.4631 25.5217 11.0945 25.5217 10.6675C25.5217 10.2401 25.3665 9.87129 25.0562 9.56096C24.7458 9.25063 24.3772 9.09546 23.9502 9.09546C23.5232 9.09546 23.1545 9.25063 22.8442 9.56096C22.5338 9.87129 22.3787 10.2401 22.3787 10.6675C22.3787 11.0945 22.5338 11.4631 22.8442 11.7735C23.1545 12.0838 23.5232 12.239 23.9502 12.239Z" fill="black"/>
</svg>
