<svg width="48" height="48" viewBox="0 0 48 48" fill="none" xmlns="http://www.w3.org/2000/svg">
<path d="M23.9982 25.7035C22.1595 25.7035 20.595 25.0573 19.3047 23.765C18.014 22.473 17.3687 20.9078 17.3687 19.0695C17.3687 17.2311 18.0147 15.6646 19.3067 14.37C20.5987 13.0756 22.1638 12.4285 24.0022 12.4285C25.8408 12.4285 27.4053 13.0771 28.6957 14.3745C29.9863 15.6718 30.6317 17.2383 30.6317 19.074C30.6317 20.9123 29.9857 22.4768 28.6937 23.7675C27.4017 25.0581 25.8365 25.7035 23.9982 25.7035ZM23.9992 22.4285C24.9345 22.4285 25.73 22.1018 26.3857 21.4485C27.041 20.7955 27.3687 20.0023 27.3687 19.069C27.3687 18.136 27.0413 17.3418 26.3867 16.6865C25.7317 16.0311 24.9365 15.7035 24.0012 15.7035C23.0658 15.7035 22.2703 16.0306 21.6147 16.685C20.9593 17.3393 20.6317 18.1338 20.6317 19.0685C20.6317 20.0001 20.959 20.793 21.6137 21.447C22.2687 22.1013 23.0638 22.4285 23.9992 22.4285ZM7.34267 35.199C6.82901 34.8786 6.42701 34.4566 6.13667 33.933C5.84634 33.409 5.70117 32.8446 5.70117 32.24V15.7715C5.70117 15.1671 5.84634 14.603 6.13667 14.079C6.42701 13.5553 6.82901 13.1333 7.34267 12.813L22.2352 3.73498C22.7655 3.39498 23.3538 3.22498 24.0002 3.22498C24.6465 3.22498 25.2348 3.39498 25.7652 3.73498L40.6577 12.813C41.1713 13.1333 41.5753 13.5553 41.8697 14.079C42.164 14.603 42.3112 15.1671 42.3112 15.7715V32.24C42.3112 32.8446 42.164 33.409 41.8697 33.933C41.5753 34.4566 41.1713 34.8786 40.6577 35.199L25.7652 44.277C25.2348 44.617 24.6465 44.787 24.0002 44.787C23.3538 44.787 22.7655 44.617 22.2352 44.277L7.34267 35.199ZM24.0002 33.6315C22.5145 33.6315 21.079 33.8651 19.6937 34.3325C18.308 34.7998 17.0478 35.501 15.9132 36.436L24.0002 41.3185L32.0872 36.436C30.9525 35.501 29.6923 34.7998 28.3067 34.3325C26.9213 33.8651 25.4858 33.6315 24.0002 33.6315ZM12.7522 34.5065C14.3682 33.2398 16.1285 32.2335 18.0332 31.4875C19.9378 30.7415 21.9258 30.3685 23.9972 30.3685C26.0662 30.3685 28.0545 30.7415 29.9622 31.4875C31.8702 32.2335 33.6282 33.2398 35.2362 34.5065L38.8927 32.34V15.752L24.0002 6.63148L9.10767 15.752V32.34L12.7522 34.5065Z" fill="black"/>
</svg>
