<svg width="48" height="48" viewBox="0 0 48 48" fill="none" xmlns="http://www.w3.org/2000/svg">
<path d="M9.23881 42.1796C8.29081 42.1796 7.48398 41.8469 6.81831 41.1816C6.15298 40.5159 5.82031 39.7091 5.82031 38.7611V18.0001C5.82031 14.6171 7.00448 11.7414 9.37281 9.37306C11.7411 7.00473 14.6168 5.82056 17.9998 5.82056H29.9998C33.3828 5.82056 36.2585 7.00473 38.6268 9.37306C40.9951 11.7414 42.1793 14.6171 42.1793 18.0001V38.7611C42.1793 39.7091 41.8456 40.5159 41.1783 41.1816C40.511 41.8469 39.7092 42.1796 38.7728 42.1796H9.23881ZM9.23881 38.7611H38.7728V18.0001C38.7728 15.5637 37.9196 13.4926 36.2133 11.7866C34.5073 10.0802 32.4361 9.22706 29.9998 9.22706H17.9998C15.5598 9.22706 13.4896 10.0802 11.7893 11.7866C10.089 13.4926 9.23881 15.5637 9.23881 18.0001V38.7611ZM17.9948 23.6796C16.9758 23.6796 16.1086 23.3202 15.3933 22.6016C14.678 21.8832 14.3203 21.0144 14.3203 19.9951C14.3203 18.9761 14.6796 18.1089 15.3983 17.3936C16.1166 16.6782 16.9855 16.3206 18.0048 16.3206C19.0238 16.3206 19.891 16.6799 20.6063 17.3986C21.3216 18.1169 21.6793 18.9857 21.6793 20.0051C21.6793 21.0241 21.32 21.8912 20.6013 22.6066C19.883 23.3219 19.0141 23.6796 17.9948 23.6796ZM29.9948 23.6796C28.9758 23.6796 28.1086 23.3202 27.3933 22.6016C26.678 21.8832 26.3203 21.0144 26.3203 19.9951C26.3203 18.9761 26.6796 18.1089 27.3983 17.3936C28.1166 16.6782 28.9855 16.3206 30.0048 16.3206C31.0238 16.3206 31.891 16.6799 32.6063 17.3986C33.3216 18.1169 33.6793 18.9857 33.6793 20.0051C33.6793 21.0241 33.32 21.8912 32.6013 22.6066C31.883 23.3219 31.0141 23.6796 29.9948 23.6796ZM14.3803 38.7611V33.4761C14.3803 32.5394 14.705 31.7376 15.3543 31.0706C16.0036 30.4032 16.8025 30.0696 17.7508 30.0696H30.2128C31.1611 30.0696 31.968 30.4032 32.6333 31.0706C33.2986 31.7376 33.6313 32.5394 33.6313 33.4761V38.7611H30.3923V33.3926H25.6193V38.7611H22.3803V33.3926H17.6073V38.7611H14.3803Z" fill="black"/>
</svg>
