<svg width="48" height="48" viewBox="0 0 48 48" fill="none" xmlns="http://www.w3.org/2000/svg">
<path d="M20.5406 1.26824C22.5102 -0.423546 25.4171 -0.422395 27.3856 1.26958C28.8897 2.56232 30.3515 3.85741 31.7795 5.16355C33.7103 5.2496 35.656 5.36737 37.6276 5.51695C40.2165 5.71339 42.2713 7.76976 42.4669 10.3581C42.6158 12.3301 42.7333 14.274 42.8193 16.2019C44.1313 17.6359 45.4321 19.1038 46.7305 20.6144C48.4225 22.583 48.4235 25.4899 46.7317 27.4594C45.4345 28.9697 44.1331 30.4388 42.8193 31.8744C42.7333 33.8016 42.6155 35.7447 42.4667 37.7158C42.2711 40.3042 40.2165 42.3605 37.6276 42.5569C35.6543 42.7066 33.707 42.8246 31.7744 42.9106C30.3705 44.1934 28.9348 45.4646 27.4595 46.7318C25.49 48.4236 22.583 48.4224 20.6145 46.7304C19.1402 45.4634 17.7068 44.1939 16.3058 42.9142C14.347 42.8278 12.373 42.7087 10.3723 42.5569C7.78338 42.3605 5.72874 40.3042 5.53316 37.7158C5.38213 35.7171 5.26345 33.7474 5.17707 31.7938C3.8664 30.3612 2.56671 28.8946 1.26954 27.3855C-0.422364 25.4168 -0.423553 22.5101 1.26821 20.5406C2.56662 19.0289 3.86926 17.5589 5.1841 16.1222C5.26986 14.2204 5.38619 12.3029 5.53316 10.3581C5.72874 7.76974 7.78338 5.71335 10.3723 5.51695C12.3167 5.36945 14.236 5.25281 16.1406 5.16706C17.5715 3.85796 19.0355 2.56107 20.5406 1.26824Z" fill="#FFCE51"/>
<path d="M23.1569 19.1327C23.6573 18.6961 24.4016 18.6964 24.9019 19.1331C26.3674 20.4124 27.6638 21.7088 28.9431 23.1743C29.3798 23.6745 29.3801 24.4191 28.9435 24.9195C27.6718 26.3768 26.377 27.6716 24.9197 28.9432C24.4193 29.3799 23.6748 29.3795 23.1746 28.9429C21.709 27.6635 20.4127 26.3672 19.1333 24.9016C18.6967 24.4014 18.6963 23.6571 19.133 23.1567C20.4046 21.6993 21.6996 20.4044 23.1569 19.1327Z" fill="#E37B00"/>
<path fill-rule="evenodd" clip-rule="evenodd" d="M20.2101 9.82541C22.3924 7.92106 25.6411 7.92281 27.8218 9.82657C31.6018 13.1265 34.9498 16.4741 38.2497 20.2543C40.1239 22.4012 40.1544 25.5828 38.3386 27.7632L38.2507 27.866C34.9701 31.6255 31.6255 34.97 27.8661 38.2507C25.684 40.1549 22.4352 40.1535 20.2543 38.2496C16.4741 34.9498 13.1265 31.6018 9.8266 27.8218C7.9228 25.6411 7.92106 22.3923 9.82541 20.21C13.1061 16.4506 16.4506 13.1061 20.2101 9.82541ZM24.4399 13.7008C24.1953 13.4872 23.8351 13.4877 23.5915 13.7003C20.0074 16.8278 16.8278 20.0074 13.7003 23.5915C13.4877 23.8351 13.4872 24.1952 13.7008 24.4399C16.848 28.045 20.0313 31.2284 23.6362 34.3755C23.8807 34.5888 24.241 34.5886 24.4848 34.3759C28.0687 31.2483 31.2484 28.0687 34.3759 24.4848C34.5886 24.241 34.5888 23.8807 34.3756 23.6362C31.2283 20.0312 28.045 16.848 24.4399 13.7008Z" fill="#E37B00"/>
</svg>
