<svg width="48" height="48" viewBox="0 0 48 48" fill="none" xmlns="http://www.w3.org/2000/svg">
<path d="M24 0C31.447 0 37.5069 2.09988 41.7036 6.29649C45.9002 10.4931 48 16.553 48 24C48 31.447 45.9002 37.507 41.7036 41.7036C37.5069 45.9003 31.4469 48 24 48C16.553 48 10.4929 45.9003 6.29631 41.7036C2.09971 37.507 0 31.447 0 24C1.71429e-05 16.5531 2.09974 10.4931 6.29631 6.29649C10.4929 2.09986 16.553 0 24 0Z" fill="#FFB9AA"/>
<path d="M23.9999 39.9429C24.5319 39.9429 24.9647 40.0929 25.2646 40.3927C25.5642 40.6925 25.7142 41.1252 25.7142 41.6572C25.7142 42.1891 25.5644 42.622 25.2646 42.9218C24.9647 43.2216 24.5319 43.3714 23.9999 43.3714C23.468 43.3714 23.0351 43.2216 22.7353 42.9218C22.4356 42.622 22.2856 42.1891 22.2856 41.6572C22.2856 41.1252 22.4356 40.6925 22.7353 40.3927C23.0351 40.0929 23.468 39.9429 23.9999 39.9429Z" fill="#ED4326"/>
<path fill-rule="evenodd" clip-rule="evenodd" d="M9.17145 9.17146C11.1913 7.15167 17.3299 13.4012 23.9591 13.4013C30.5882 13.4012 36.9683 7.31082 38.8288 9.17129C40.6891 11.0318 34.5988 17.412 34.5988 24.041C34.5988 30.6701 40.8484 36.8088 38.8286 38.8286C36.8088 40.8484 30.6701 34.5988 24.041 34.5988C17.412 34.5988 11.0318 40.6891 9.17128 38.8288C7.31083 36.9683 13.4011 30.5882 13.4011 23.9591C13.4011 17.3299 7.15171 11.1913 9.17145 9.17146ZM24.0002 15.5999C21.8261 15.5999 22.7705 21.0247 22.7724 21.0355C22.7724 21.0355 19.5993 16.5213 18.0605 18.0602C16.5251 19.5957 21.0165 22.7582 21.0359 22.7719C21.0161 22.7685 15.6002 21.8275 15.6002 23.9999C15.6004 26.1724 21.0179 25.2307 21.0359 25.2276C21.0221 25.2372 16.524 28.4032 18.0605 29.9395C19.5974 31.4764 22.7644 26.9755 22.7724 26.964C22.77 26.9781 21.8268 32.3999 24.0002 32.3999C26.1737 32.3999 25.2304 26.9774 25.228 26.964C25.2343 26.9731 28.4027 31.4769 29.9399 29.9395C31.4759 28.4037 26.982 25.24 26.9645 25.2276C26.988 25.2317 32.4 26.1713 32.4002 23.9999C32.4002 21.8289 26.9908 22.7673 26.9645 22.7719C26.9884 22.7551 31.4747 19.5948 29.9399 18.0602C28.402 16.5223 25.2319 21.0299 25.228 21.0355C25.2302 21.0223 26.1737 15.5999 24.0002 15.5999Z" fill="#ED4326"/>
<path d="M6.3427 22.2856C6.87463 22.2856 7.30757 22.4355 7.60733 22.7353C7.90708 23.0351 8.05699 23.468 8.05699 23.9999C8.05699 24.5319 7.90708 24.9647 7.60733 25.2646C7.30757 25.5644 6.87463 25.7142 6.3427 25.7142C5.81078 25.7142 5.37785 25.5642 5.07808 25.2646C4.77833 24.9647 4.62842 24.5319 4.62842 23.9999C4.62842 23.468 4.77832 23.0351 5.07808 22.7353C5.37785 22.4355 5.81076 22.2856 6.3427 22.2856Z" fill="#ED4326"/>
<path d="M41.6572 22.2856C42.1891 22.2856 42.622 22.4355 42.9218 22.7353C43.2216 23.0351 43.3714 23.468 43.3714 23.9999C43.3714 24.5319 43.2216 24.9647 42.9218 25.2646C42.622 25.5642 42.1891 25.7142 41.6572 25.7142C41.1252 25.7142 40.6925 25.5642 40.3927 25.2646C40.0929 24.9647 39.9429 24.5319 39.9429 23.9999C39.9429 23.468 40.0929 23.0351 40.3927 22.7353C40.6925 22.4356 41.1252 22.2856 41.6572 22.2856Z" fill="#ED4326"/>
<path d="M23.9999 4.62866C24.5319 4.62866 24.9647 4.77856 25.2646 5.07832C25.5644 5.3781 25.7142 5.81102 25.7142 6.34295C25.7142 6.87484 25.5642 7.30765 25.2646 7.60741C24.9647 7.90717 24.5319 8.05723 23.9999 8.05723C23.468 8.05723 23.0351 7.90717 22.7353 7.60741C22.4356 7.30765 22.2856 6.87482 22.2856 6.34295C22.2856 5.81102 22.4356 5.3781 22.7353 5.07832C23.0351 4.77858 23.468 4.62866 23.9999 4.62866Z" fill="#ED4326"/>
</svg>
