<svg width="48" height="48" viewBox="0 0 48 48" fill="none" xmlns="http://www.w3.org/2000/svg">
<path d="M24 0C28.0845 0 32.0649 0.3756 35.8821 0.796543L35.891 0.797537C38.7907 1.13237 41.4915 2.43957 43.553 4.50619C45.6142 6.57283 46.9147 9.27693 47.2421 12.1775L47.2431 12.1875C47.6503 15.9879 48 19.9461 48 24C48 28.0541 47.6503 32.0121 47.2431 35.8092L47.2421 35.819C46.9147 38.7195 45.6142 41.4237 43.553 43.4902C41.4915 45.557 38.7907 46.8641 35.891 47.1989L35.8855 47.1996C32.0676 47.6282 28.0841 48 24 48C19.9159 48 15.9358 47.6282 12.1147 47.1996L12.109 47.1989C9.2093 46.8641 6.50849 45.557 4.4471 43.4902C2.3857 41.4237 1.0853 38.7195 0.757869 35.819L0.756703 35.8092C0.349491 32.0121 0 28.0575 0 24C0 19.9425 0.349457 15.9845 0.756703 12.1907L0.757869 12.181C1.08531 9.28048 2.38574 6.5765 4.4471 4.50987C6.50849 2.44323 9.20928 1.13585 12.109 0.801069L12.1145 0.800383C15.9324 0.371811 19.9159 0 24 0Z" fill="#FFB9AA"/>
<path fill-rule="evenodd" clip-rule="evenodd" d="M23.9999 22.1492C26.2432 15.4785 31.7767 10.8057 38.4006 11.9028C38.5749 15.4209 38.6844 21.4485 38.73 24.9306C38.7902 29.6474 36.9671 33.2509 34.1567 35.6598C31.3679 38.0504 27.6645 39.2204 23.9999 39.2204C20.3351 39.2204 16.6317 38.0504 13.8429 35.6598C11.0324 33.2509 9.20743 29.6474 9.26755 24.9306C9.27071 20.5847 9.38409 16.2438 9.59925 11.9028C16.223 10.8057 21.7564 15.4785 23.9999 22.1492ZM11.1896 25.1646C11.1917 29.2182 12.7668 32.2045 15.0946 34.1997C17.4839 36.2478 20.7225 37.2971 23.9999 37.2971C27.2771 37.2971 30.5157 36.2478 32.9052 34.1997C35.2329 32.2045 36.8082 29.2182 36.8104 25.1646H34.1671C34.0245 28.0595 32.8111 30.3124 31.0062 31.8596C29.0731 33.5164 26.5171 34.3196 23.9999 34.3196C21.4824 34.3196 18.9264 33.5164 16.9934 31.8596C15.1885 30.3124 13.9753 28.0595 13.8328 25.1646H11.1896ZM15.7588 25.1646C15.8968 27.4953 16.8693 29.2201 18.2452 30.3995C19.7786 31.714 21.8699 32.3965 23.9999 32.3965C26.1297 32.3965 28.221 31.7138 29.7544 30.3995C31.1304 29.2201 32.1031 27.4952 32.241 25.1646H28.7418C28.6999 26.5521 28.1272 27.6589 27.2436 28.4162C26.3328 29.1969 25.1469 29.5621 23.9999 29.5621C22.8527 29.5621 21.6669 29.1969 20.7561 28.4162C19.8726 27.6589 19.2998 26.5521 19.258 25.1646H15.7588ZM21.1824 25.1646C21.2212 25.9921 21.5551 26.5681 22.0075 26.956C22.5191 27.3945 23.2401 27.639 23.9999 27.639C24.7595 27.639 25.4805 27.3944 25.992 26.956C26.4446 26.5681 26.7786 25.9921 26.8173 25.1646H21.1824Z" fill="#ED4326"/>
</svg>
