<svg width="48" height="48" viewBox="0 0 48 48" fill="none" xmlns="http://www.w3.org/2000/svg">
<path d="M24 0C31.447 0 37.5069 2.09988 41.7036 6.29649C45.9002 10.4931 48 16.553 48 24C48 31.447 45.9002 37.507 41.7036 41.7036C37.5069 45.9003 31.4469 48 24 48C16.553 48 10.4929 45.9003 6.29631 41.7036C2.09971 37.507 0 31.447 0 24C8.57143e-06 16.5531 2.09974 10.4931 6.29631 6.29649C10.4929 2.09986 16.553 0 24 0Z" fill="#89DCFF"/>
<path d="M34.9811 34.9201L30.0855 39.7215L24.8569 34.3906L19.6283 39.7215L14.7329 34.9201L21.7345 27.781C22.033 27.9764 22.3746 28.1014 22.7334 28.1429H22.7344C23.4169 28.2194 24.1276 28.2859 24.8569 28.2859C25.5862 28.2859 26.2976 28.2194 26.9794 28.1429H26.9804C27.3392 28.1014 27.6808 27.9764 27.9793 27.781L34.9811 34.9201Z" fill="#006AE7"/>
<path d="M21.0749 20.8764C20.875 21.1786 20.7478 21.5252 20.7067 21.8893L20.7065 21.8912C20.6338 22.5687 20.5714 23.2755 20.5714 24C20.5714 24.7246 20.6338 25.4307 20.7065 26.1089L20.7067 26.1106C20.7478 26.4747 20.8752 26.8213 21.0751 27.1236L13.9371 34.1242L9.13574 29.2285L14.4666 24L9.13574 18.7714L13.9371 13.876L21.0749 20.8764Z" fill="#006AE7"/>
<path d="M40.5785 18.7714L35.2476 24L40.5785 29.2285L35.7771 34.1242L28.6392 27.1236C28.8389 26.8213 28.9664 26.4747 29.0076 26.1106L29.0077 26.1089C29.0804 25.4307 29.1428 24.7239 29.1428 24C29.1428 23.276 29.0804 22.5692 29.0077 21.8905L29.0076 21.8888C28.9664 21.5247 28.839 21.1781 28.6393 20.876L35.7771 13.876L40.5785 18.7714Z" fill="#006AE7"/>
<path d="M34.6827 12.7871L27.5932 20.0154C27.3985 19.9354 27.1926 19.8814 26.9807 19.8568L26.979 19.8567C26.2974 19.7816 25.5867 19.7144 24.8572 19.7144C24.128 19.7144 23.4165 19.7809 22.7348 19.8574L22.7338 19.8575C22.5219 19.882 22.316 19.9359 22.1214 20.0159L15.0317 12.7871L19.33 8.57153L24.8572 14.2071L30.3844 8.57153L34.6827 12.7871Z" fill="#006AE7"/>
</svg>
