<svg width="48" height="48" viewBox="0 0 48 48" fill="none" xmlns="http://www.w3.org/2000/svg">
<path d="M20.8447 36.1675H7.10767C6.18767 36.1675 5.39001 35.8296 4.71467 35.154C4.03901 34.4786 3.70117 33.681 3.70117 32.761V9.10746C3.70117 8.18413 4.03901 7.38363 4.71467 6.70596C5.39001 6.02796 6.18767 5.68896 7.10767 5.68896H40.8927C41.816 5.68896 42.6165 6.02796 43.2942 6.70596C43.9722 7.38363 44.3112 8.18413 44.3112 9.10746V32.761C44.3112 33.681 43.9722 34.4786 43.2942 35.154C42.6165 35.8296 41.816 36.1675 40.8927 36.1675H27.1677L31.0942 40.156C31.1272 40.1873 31.2183 40.4031 31.3677 40.8035V41.4045C31.3677 41.6711 31.2852 41.887 31.1202 42.052C30.9552 42.2166 30.7303 42.299 30.4457 42.299H17.3002C17.1035 42.299 16.945 42.238 16.8247 42.116C16.7047 41.9943 16.6447 41.838 16.6447 41.647V40.6935C16.6447 40.6615 16.7153 40.4988 16.8567 40.2055L20.8447 36.1675ZM7.10767 28.3075H40.8927V9.10746H7.10767V28.3075Z" fill="black"/>
</svg>
