<svg width="48" height="48" viewBox="0 0 48 48" fill="none" xmlns="http://www.w3.org/2000/svg">
<path d="M34.481 29.1295C33.1053 29.1295 31.9432 28.6552 30.9945 27.7065C30.0458 26.7582 29.5715 25.596 29.5715 24.22C29.5715 22.8444 30.0458 21.6822 30.9945 20.7335C31.9432 19.7852 33.1053 19.311 34.481 19.311C35.8567 19.311 37.0188 19.7852 37.9675 20.7335C38.9158 21.6822 39.39 22.8444 39.39 24.22C39.39 25.596 38.9158 26.7582 37.9675 27.7065C37.0188 28.6552 35.8567 29.1295 34.481 29.1295ZM24.4715 38.751V37.701C24.4715 36.901 24.6648 36.1565 25.0515 35.4675C25.4382 34.7782 25.9848 34.2384 26.6915 33.848C27.9072 33.2234 29.1637 32.7589 30.461 32.4545C31.7583 32.1502 33.0973 31.998 34.478 31.998C35.8587 31.998 37.205 32.148 38.517 32.448C39.829 32.748 41.0762 33.2147 42.2585 33.848C42.9985 34.205 43.5555 34.7334 43.9295 35.433C44.3032 36.1327 44.49 36.8887 44.49 37.701V38.751C44.49 39.232 44.3242 39.6362 43.9925 39.9635C43.6605 40.2909 43.2547 40.4545 42.775 40.4545H26.175C25.6943 40.4545 25.2903 40.2909 24.963 39.9635C24.6353 39.6362 24.4715 39.232 24.4715 38.751ZM19.818 23.7945C17.529 23.7945 15.6573 23.0675 14.203 21.6135C12.7487 20.1592 12.0215 18.2874 12.0215 15.998C12.0215 13.7087 12.7487 11.8362 14.203 10.3805C15.6573 8.92453 17.529 8.19653 19.818 8.19653C22.1073 8.19653 23.982 8.92453 25.442 10.3805C26.9017 11.8362 27.6315 13.7087 27.6315 15.998C27.6315 18.2874 26.9017 20.1592 25.442 21.6135C23.982 23.0675 22.1073 23.7945 19.818 23.7945ZM3.52148 35.4315C3.52148 34.2475 3.82148 33.1557 4.42148 32.156C5.02148 31.1564 5.90515 30.3939 7.07248 29.8685C9.34082 28.8605 11.5105 28.1045 13.5815 27.6005C15.6525 27.0965 17.728 26.8445 19.808 26.8445C20.9177 26.8445 21.9025 26.8965 22.7625 27.0005C23.6222 27.1045 24.5513 27.2605 25.55 27.4685C25.0693 27.9572 24.5885 28.444 24.1075 28.929C23.6268 29.4137 23.146 29.8964 22.665 30.377C22.2537 30.3294 21.813 30.2985 21.343 30.2845C20.873 30.2702 20.3655 30.263 19.8205 30.263C17.9488 30.263 16.122 30.4487 14.34 30.82C12.5577 31.1914 10.6205 31.8859 8.52849 32.9035C8.06182 33.1369 7.67848 33.4997 7.37848 33.992C7.07849 34.4847 6.92848 34.9815 6.92848 35.4825V37.048H21.4715V38.6325C21.4715 38.9929 21.549 39.331 21.704 39.647C21.859 39.9634 22.0468 40.2325 22.2675 40.4545H6.92848C5.98348 40.4545 5.17948 40.1209 4.51648 39.4535C3.85315 38.7862 3.52148 37.9844 3.52148 37.048V35.4315ZM19.818 20.388C21.088 20.388 22.138 19.9737 22.968 19.145C23.798 18.316 24.213 17.2664 24.213 15.996C24.213 14.7224 23.7988 13.6719 22.9705 12.8445C22.1418 12.0172 21.0927 11.6035 19.823 11.6035C18.5533 11.6035 17.5035 12.0174 16.6735 12.845C15.8435 13.673 15.4285 14.7214 15.4285 15.99C15.4285 17.2624 15.8427 18.3134 16.671 19.143C17.4993 19.973 18.5483 20.388 19.818 20.388Z" fill="black"/>
</svg>
