<svg width="16" height="16" viewBox="0 0 16 16" fill="none" xmlns="http://www.w3.org/2000/svg">
<path d="M7.00864 9.4138L5.45114 7.8563C5.34048 7.74564 5.20481 7.6903 5.04414 7.6903C4.88348 7.6903 4.7412 7.75119 4.61731 7.87297C4.50675 7.98619 4.45148 8.12302 4.45148 8.28347C4.45148 8.4438 4.50809 8.5793 4.62131 8.68997L6.60681 10.6921C6.72137 10.8054 6.85498 10.862 7.00764 10.862C7.16031 10.862 7.29459 10.8054 7.41048 10.6921L11.346 6.75264C11.4704 6.63086 11.5326 6.4903 11.5326 6.33097C11.5326 6.17164 11.4704 6.03008 11.346 5.9063C11.2242 5.79564 11.0802 5.74308 10.914 5.74864C10.7478 5.75419 10.6083 5.8123 10.4956 5.92297L7.00864 9.4138ZM8.00048 14.7671C7.07314 14.7671 6.19792 14.59 5.37481 14.2358C4.55181 13.8816 3.83298 13.3971 3.21831 12.7825C2.60364 12.1678 2.1192 11.4491 1.76498 10.6265C1.41075 9.8038 1.23364 8.92875 1.23364 8.0013C1.23364 7.06286 1.41075 6.18208 1.76498 5.35897C2.1192 4.53597 2.60342 3.81986 3.21764 3.21064C3.83186 2.6013 4.55042 2.11897 5.37331 1.76364C6.1962 1.40819 7.07148 1.23047 7.99914 1.23047C8.93781 1.23047 9.81886 1.40808 10.6423 1.7633C11.4656 2.11852 12.1818 2.60058 12.7908 3.20947C13.3999 3.81836 13.8821 4.53436 14.2373 5.35747C14.5926 6.18058 14.7703 7.06169 14.7703 8.0008C14.7703 8.92858 14.5926 9.80397 14.2371 10.627C13.8818 11.45 13.3995 12.1686 12.7901 12.783C12.1809 13.3973 11.465 13.8816 10.6423 14.2358C9.81964 14.59 8.93903 14.7671 8.00048 14.7671ZM7.99998 13.6316C9.56709 13.6316 10.8974 13.083 11.9908 11.9858C13.0841 10.8885 13.6308 9.56013 13.6308 8.0008C13.6308 6.43369 13.0841 5.10341 11.9908 4.00997C10.8974 2.91663 9.56642 2.36997 7.99798 2.36997C6.44064 2.36997 5.11314 2.91663 4.01548 4.00997C2.91792 5.10341 2.36914 6.43436 2.36914 8.0028C2.36914 9.56013 2.91775 10.8876 4.01498 11.9853C5.11231 13.0829 6.44064 13.6316 7.99998 13.6316Z" fill="black"/>
</svg>
