<svg width="48" height="48" viewBox="0 0 48 48" fill="none" xmlns="http://www.w3.org/2000/svg">
<path d="M7.70117 40.8925V22.348H6.70117C5.87617 22.348 5.17001 22.0541 4.58267 21.4665C3.99501 20.8791 3.70117 20.173 3.70117 19.348V13.4535C3.70117 12.5168 4.03267 11.7148 4.69567 11.0475C5.35867 10.3801 6.16267 10.0465 7.10767 10.0465H14.8447C14.594 9.64646 14.402 9.22413 14.2687 8.77946C14.1353 8.33447 14.0687 7.87746 14.0687 7.40846C14.0687 5.82113 14.6258 4.47113 15.7402 3.35846C16.8548 2.24546 18.2082 1.68896 19.8002 1.68896C20.6002 1.68896 21.3732 1.84963 22.1192 2.17096C22.8652 2.49263 23.4922 2.96213 24.0002 3.57946C24.5082 2.9698 25.1372 2.5023 25.8872 2.17696C26.6372 1.85163 27.4122 1.68896 28.2122 1.68896C29.8008 1.68896 31.1513 2.24546 32.2637 3.35846C33.3757 4.47113 33.9317 5.82113 33.9317 7.40846C33.9317 7.8788 33.867 8.33513 33.7377 8.77746C33.6083 9.2198 33.4143 9.6428 33.1557 10.0465H40.8927C41.841 10.0465 42.6478 10.3801 43.3132 11.0475C43.9785 11.7148 44.3112 12.5168 44.3112 13.4535V19.348C44.3112 20.173 44.0153 20.8791 43.4237 21.4665C42.8323 22.0541 42.1282 22.348 41.3112 22.348H40.3112V40.8925C40.3112 41.8375 39.9785 42.6415 39.3132 43.3045C38.6478 43.9675 37.841 44.299 36.8927 44.299H11.1077C10.1627 44.299 9.35867 43.9675 8.69567 43.3045C8.03267 42.6415 7.70117 41.8375 7.70117 40.8925ZM28.2157 4.82046C27.48 4.82046 26.8622 5.06813 26.3622 5.56346C25.8622 6.05913 25.6122 6.67296 25.6122 7.40496C25.6122 8.1373 25.861 8.7523 26.3587 9.24996C26.8563 9.74763 27.473 9.99646 28.2087 9.99646C28.9443 9.99646 29.5622 9.7488 30.0622 9.25346C30.5622 8.75813 30.8122 8.1443 30.8122 7.41196C30.8122 6.67996 30.5633 6.06496 30.0657 5.56696C29.568 5.0693 28.9513 4.82046 28.2157 4.82046ZM17.2002 7.39896C17.2002 8.13763 17.449 8.7553 17.9467 9.25196C18.4443 9.7483 19.061 9.99646 19.7967 9.99646C20.5323 9.99646 21.1502 9.74946 21.6502 9.25546C22.1502 8.76113 22.4002 8.14463 22.4002 7.40596C22.4002 6.67563 22.1513 6.06213 21.6537 5.56546C21.156 5.0688 20.5393 4.82046 19.8037 4.82046C19.068 4.82046 18.4502 5.06763 17.9502 5.56196C17.4502 6.0563 17.2002 6.66863 17.2002 7.39896ZM7.10767 13.4535V18.9415H22.3807V13.4535H7.10767ZM22.3807 40.9045V22.348H10.8077V40.9045H22.3807ZM25.6197 40.9045H37.1927V22.348H25.6197V40.9045ZM40.9047 18.9415V13.4535H25.6197V18.9415H40.9047Z" fill="white"/>
</svg>
