<svg width="48" height="48" viewBox="0 0 48 48" fill="none" xmlns="http://www.w3.org/2000/svg">
<path fill-rule="evenodd" clip-rule="evenodd" d="M41.46 14.24L41.18 13.74C40.8188 13.1354 40.3094 12.6329 39.7 12.28L26.28 4.54C25.6724 4.1875 24.9826 4.00124 24.28 4H23.7C22.9974 4.00124 22.3076 4.1875 21.7 4.54L8.28 12.3C7.67394 12.6505 7.17052 13.1539 6.82 13.76L6.54 14.26C6.1875 14.8677 6.00124 15.5575 6 16.26V31.76C6.00124 32.4626 6.1875 33.1524 6.54 33.76L6.82 34.26C7.17958 34.859 7.68098 35.3604 8.28 35.72L21.72 43.46C22.3246 43.8198 23.0164 44.0066 23.72 44H24.28C24.9826 43.9988 25.6724 43.8126 26.28 43.46L39.7 35.7C40.312 35.3574 40.8174 34.852 41.16 34.24L41.46 33.74C41.8082 33.1306 41.9942 32.442 42 31.74V16.24C41.9988 15.5375 41.8126 14.8477 41.46 14.24ZM23.7 8H24.28L36 14.76L24 21.68L12 14.76L23.7 8ZM26 39L37.7 32.24L38 31.74V18.22L26 25.16V39Z" fill="white"/>
<g clip-path="url(#clip0_12340_3960)">
<rect width="41.875" height="40" transform="translate(3 4)" fill="#2B5442"/>
<path d="M3 4H44.875V44H3V4Z" fill="#2B5442"/>
<path d="M24.7657 7.45728C28.1621 7.58994 31.4341 8.77085 34.1323 10.8378C40.5764 15.7741 42.4592 24.6716 38.5675 31.7953C34.6756 38.9191 26.1712 42.1416 18.5357 39.3859C10.9003 36.6302 6.41404 28.7192 7.96863 20.7519C9.52323 12.7846 16.6544 7.14044 24.7657 7.45728Z" fill="#213F31"/>
<path d="M34.1323 10.8378C40.5764 15.7741 42.4592 24.6716 38.5675 31.7953C34.6756 38.9191 26.1712 42.1416 18.5357 39.3859C10.9003 36.6302 6.41404 28.7192 7.96863 20.7519C9.52323 12.7846 16.6544 7.14044 24.7657 7.45728C24.6925 7.71115 24.1452 8.05593 24.1162 8.5537C24.0805 9.16448 24.2975 9.40796 24.7027 9.82796C24.804 9.92886 25.0213 9.99601 24.9927 10.1463C22.8552 9.91515 19.8611 10.5323 17.922 11.5358C7.05769 17.1581 8.07683 32.8365 19.5867 37.0014C20.7218 37.4122 21.3543 37.4791 22.5476 37.634C30.7117 38.6935 37.9862 32.0339 37.9361 23.8439C37.8955 20.6929 36.7947 17.6475 34.8112 15.1988C34.3892 14.6825 34.0194 14.2091 33.515 13.765C33.1472 13.4412 32.6399 13.1216 32.2901 12.8141C32.5294 12.6919 33.2626 12.7677 33.6503 12.3617C34.1202 11.8698 34.0428 11.4732 34.0694 10.8901L34.1323 10.8378Z" fill="white"/>
<path d="M24.7666 7.45728C28.163 7.58994 31.435 8.77085 34.1333 10.8378L34.0703 10.8901C34.0437 11.4732 34.1211 11.8698 33.6513 12.3617C33.2635 12.7677 32.5303 12.6919 32.291 12.8141C32.1588 12.76 31.6577 12.4049 31.4992 12.3095C30.8959 11.9461 30.1359 11.4643 29.4742 11.2396C28.5267 10.9205 27.5928 10.5924 26.6138 10.3828C26.1518 10.2839 25.4115 10.2982 24.9936 10.1463C25.0222 9.996 24.8049 9.92885 24.7036 9.82796C24.2984 9.40796 24.0814 9.16448 24.1171 8.5537C24.1461 8.05592 24.6934 7.71115 24.7666 7.45728Z" fill="#6CD3A5"/>
<path d="M24.8712 20.2208C26.1798 20.1667 27.0541 21.3484 26.3456 22.5677C26.1273 22.9433 25.6495 23.0722 25.2352 23.1335C23.0386 23.2725 22.9142 20.5317 24.8712 20.2208Z" fill="white"/>
<path d="M24.889 21.0293C25.2479 20.9433 25.6096 21.16 25.7031 21.517C25.7965 21.874 25.5872 22.2402 25.2322 22.3409C24.996 22.4079 24.742 22.342 24.5682 22.1686C24.3944 21.9951 24.328 21.7412 24.3945 21.5048C24.4611 21.2685 24.6502 21.0866 24.889 21.0293Z" fill="#213F31"/>
<path d="M28.338 23.3515C28.7216 23.3413 29.0329 23.3446 29.384 23.5499C30.0431 23.9352 30.2584 24.9064 29.8634 25.5496C29.6119 25.9593 29.2077 26.1143 28.7564 26.2148C28.2665 26.2587 27.8507 26.1891 27.4635 25.8837C26.733 25.3076 26.8459 24.0293 27.6161 23.5453C27.8808 23.379 28.043 23.3737 28.338 23.3515Z" fill="white"/>
<path d="M28.3066 24.0827C29.213 24.0293 29.5663 25.1236 28.7201 25.4894C27.6778 25.559 27.5889 24.5907 28.3066 24.0827Z" fill="#213F31"/>
<path d="M21.9697 20.3004C22.1289 20.2854 22.4138 20.3028 22.5821 20.3079C22.6279 20.9727 22.6054 21.7974 22.6057 22.4767L22.6056 26.1874L21.6709 26.1901C21.6517 26.0103 21.6459 25.8237 21.6373 25.6426L21.6377 21.3342C21.2604 21.4174 20.9014 21.5164 20.5293 21.6179C20.5315 21.3637 20.5426 21.1437 20.5599 20.8902C20.9844 20.5574 21.4405 20.3736 21.9697 20.3004Z" fill="white"/>
<path d="M19.1597 20.2969L19.6736 20.2827C19.7059 22.2516 19.7061 24.2208 19.6742 26.1897L18.8119 26.1864L18.7961 25.4089C18.764 24.1187 18.8052 22.6701 18.8199 21.3738C18.5132 21.3935 18.0427 21.4981 17.725 21.5561C17.672 21.3188 17.6078 21.1315 17.6822 20.8988C17.9125 20.6059 18.79 20.3647 19.1597 20.2969Z" fill="white"/>
<path d="M28.3025 20.2948C28.5421 20.2667 28.8612 20.2286 28.9632 20.4921C28.8243 20.9651 25.7934 25.9775 25.4446 26.1849C25.1896 26.1947 24.9424 26.1853 24.6875 26.1782C24.9602 25.3828 26.0982 23.7604 26.5593 22.9654C26.9061 22.3674 27.8441 20.7053 28.3025 20.2948Z" fill="white"/>
</g>
<defs>
<clipPath id="clip0_12340_3960">
<rect width="41.875" height="40" fill="white" transform="translate(3 4)"/>
</clipPath>
</defs>
</svg>
