<svg width="48" height="48" viewBox="0 0 48 48" fill="none" xmlns="http://www.w3.org/2000/svg">
<path d="M12.099 37.7509L15.074 40.7259C15.4057 41.0579 15.5652 41.4458 15.5525 41.8894C15.5399 42.3334 15.3784 42.7234 15.068 43.0594C14.742 43.3958 14.3502 43.5701 13.8925 43.5824C13.4352 43.5948 13.0405 43.4351 12.7085 43.1034L6.89455 37.2889C6.70821 37.1079 6.57471 36.9176 6.49405 36.7179C6.41338 36.5179 6.37305 36.3063 6.37305 36.0829C6.37305 35.8596 6.41338 35.6503 6.49405 35.4549C6.57471 35.2593 6.70821 35.0709 6.89455 34.8899L12.7085 29.0759C13.0422 28.7443 13.4409 28.5868 13.9045 28.6034C14.3682 28.6201 14.7617 28.7943 15.085 29.1259C15.3924 29.4579 15.5504 29.8478 15.559 30.2954C15.5674 30.7434 15.4057 31.1294 15.074 31.4534L12.099 34.4284H34.988V28.0834C34.988 27.6198 35.1489 27.2279 35.4705 26.9079C35.7925 26.5883 36.1869 26.4284 36.6535 26.4284C37.1202 26.4284 37.5131 26.5883 37.832 26.9079C38.1514 27.2279 38.311 27.6198 38.311 28.0834V34.3324C38.311 35.2808 37.9784 36.0876 37.313 36.7529C36.6477 37.4183 35.8409 37.7509 34.8925 37.7509H12.099ZM35.913 13.6554H13.024V19.9999C13.024 20.4639 12.8624 20.8558 12.539 21.1754C12.2157 21.4954 11.8195 21.6554 11.3505 21.6554C10.8812 21.6554 10.489 21.4954 10.174 21.1754C9.85871 20.8558 9.70105 20.4639 9.70105 19.9999V13.7509C9.70105 12.8026 10.0325 11.9958 10.6955 11.3304C11.3585 10.6651 12.1625 10.3324 13.1075 10.3324H35.913L32.938 7.35743C32.5984 7.03343 32.4349 6.6476 32.4475 6.19993C32.4602 5.75226 32.6241 5.36043 32.939 5.02443C33.2707 4.68843 33.6647 4.5141 34.121 4.50143C34.5774 4.48876 34.9715 4.64843 35.3035 4.98043L41.1175 10.7944C41.3002 10.9784 41.4327 11.1719 41.515 11.3749C41.5977 11.5783 41.639 11.7891 41.639 12.0074C41.639 12.2261 41.5977 12.4348 41.515 12.6334C41.4327 12.8321 41.3002 13.0228 41.1175 13.2054L35.3035 19.0194C34.9612 19.3514 34.5607 19.5093 34.102 19.4929C33.643 19.4766 33.2495 19.3023 32.9215 18.9699C32.6099 18.6376 32.4497 18.2476 32.441 17.7999C32.4327 17.3523 32.5984 16.9624 32.938 16.6304L35.913 13.6554Z" fill="white"/>
</svg>
