<svg width="48" height="48" viewBox="0 0 48 48" fill="none" xmlns="http://www.w3.org/2000/svg">
<path d="M24.0002 25.0335L28.1467 27.564C28.4533 27.7546 28.758 27.736 29.0607 27.508C29.363 27.2803 29.4768 26.9758 29.4022 26.5945L28.3002 21.9335L31.9587 18.751C32.2573 18.4936 32.3423 18.1911 32.2137 17.8435C32.085 17.4955 31.8342 17.3048 31.4612 17.2715L26.6512 16.8905L24.7957 12.461C24.6487 12.121 24.384 11.951 24.0017 11.951C23.6197 11.951 23.354 12.121 23.2047 12.461L21.3492 16.8905L16.5392 17.2715C16.1662 17.3048 15.9153 17.4955 15.7867 17.8435C15.658 18.1911 15.743 18.4936 16.0417 18.751L19.7002 21.9335L18.6102 26.5945C18.5275 26.9758 18.6373 27.2803 18.9397 27.508C19.2423 27.736 19.547 27.7546 19.8537 27.564L24.0002 25.0335ZM11.7012 36.299L6.61017 41.39C6.07151 41.9286 5.45201 42.0528 4.75167 41.7625C4.05134 41.4725 3.70117 40.9545 3.70117 40.2085V7.10746C3.70117 6.18413 4.03901 5.38363 4.71467 4.70596C5.39001 4.02796 6.18767 3.68896 7.10767 3.68896H40.8927C41.816 3.68896 42.6165 4.02796 43.2942 4.70596C43.9722 5.38363 44.3112 6.18413 44.3112 7.10746V32.8925C44.3112 33.8125 43.9722 34.6101 43.2942 35.2855C42.6165 35.9611 41.816 36.299 40.8927 36.299H11.7012ZM10.4012 32.8925H40.8927V7.10746H7.10767V36.486L10.4012 32.8925Z" fill="white"/>
</svg>
