<svg width="48" height="48" viewBox="0 0 48 48" fill="none" xmlns="http://www.w3.org/2000/svg">
<path d="M38.4778 30.0271C38.8235 29.6874 39.2303 29.5176 39.6983 29.5176C40.1663 29.5176 40.573 29.6874 40.9183 30.0271L43.9728 33.1316C44.3125 33.4729 44.4823 33.8711 44.4823 34.3261C44.4823 34.7811 44.3121 35.1806 43.9718 35.5246C43.6315 35.8683 43.2323 36.0401 42.7743 36.0401C42.3166 36.0401 41.9165 35.8663 41.5738 35.5186L38.4813 32.4641C38.1336 32.1214 37.9598 31.7146 37.9598 31.2436C37.9598 30.7726 38.1325 30.3671 38.4778 30.0271ZM39.7933 6.1891C40.1333 6.5331 40.3033 6.93993 40.3033 7.40959C40.3033 7.87926 40.1333 8.2826 39.7933 8.6196L36.7388 11.6861C36.3915 12.0258 35.9838 12.1956 35.5158 12.1956C35.0475 12.1956 34.6428 12.0248 34.3018 11.6831C33.9541 11.3384 33.7803 10.9309 33.7803 10.4606C33.7803 9.98993 33.9541 9.58609 34.3018 9.24909L37.3943 6.1826C37.738 5.84293 38.1386 5.6731 38.5963 5.6731C39.0543 5.6731 39.4533 5.8451 39.7933 6.1891ZM8.2088 6.1886C8.55046 5.84493 8.95646 5.6731 9.4268 5.6731C9.89746 5.6731 10.303 5.84293 10.6433 6.1826L13.7098 9.28709C14.0495 9.63043 14.2193 10.0311 14.2193 10.4891C14.2193 10.9471 14.0508 11.3461 13.7138 11.6861C13.3765 12.0258 12.978 12.1956 12.5183 12.1956C12.0583 12.1956 11.6598 12.0258 11.3228 11.6861L8.2063 8.6196C7.8663 8.27926 7.6963 7.87493 7.6963 7.40659C7.6963 6.93859 7.86713 6.5326 8.2088 6.1886ZM9.5303 30.0301C9.86996 30.3714 10.0398 30.7774 10.0398 31.2481C10.0398 31.7184 9.86996 32.1238 9.5303 32.4641L6.4758 35.5186C6.13313 35.8663 5.7263 36.0401 5.2553 36.0401C4.7843 36.0401 4.3788 35.8709 4.0388 35.5326C3.69913 35.1939 3.5293 34.7954 3.5293 34.3371C3.5293 33.8788 3.69913 33.4769 4.0388 33.1316L7.1433 30.0271C7.48463 29.6874 7.8828 29.5176 8.3378 29.5176C8.7928 29.5176 9.1903 29.6884 9.5303 30.0301ZM16.6083 35.1751L24.0018 30.7351L31.4073 35.2261L29.4268 26.8401L35.9563 21.1511L27.3598 20.3986L23.9998 12.4651L20.6553 20.3481L12.0553 21.1131L18.5898 26.7936L16.6083 35.1751ZM23.9998 34.7176L14.9388 40.1861C14.6325 40.3844 14.3075 40.4679 13.9638 40.4366C13.6205 40.4053 13.3178 40.2984 13.0558 40.1161C12.7941 39.9341 12.5971 39.6909 12.4648 39.3866C12.3325 39.0826 12.3075 38.7399 12.3898 38.3586L14.7803 28.0336L6.7713 21.0391C6.47296 20.7814 6.2928 20.4903 6.2308 20.1656C6.1688 19.8409 6.17513 19.5263 6.2498 19.2216C6.32446 18.9166 6.49646 18.6586 6.7658 18.4476C7.0348 18.2363 7.35996 18.1139 7.7413 18.0806L18.3198 17.1496L22.4083 7.39359C22.5493 7.04559 22.769 6.78676 23.0673 6.6171C23.3656 6.4471 23.6723 6.36209 23.9873 6.36209C24.3023 6.36209 24.6123 6.4471 24.9173 6.6171C25.2223 6.78676 25.447 7.04559 25.5913 7.39359L29.6888 17.1546L40.2703 18.0806C40.6436 18.1139 40.9648 18.2363 41.2338 18.4476C41.5031 18.6586 41.6751 18.9166 41.7498 19.2216C41.8245 19.5263 41.8328 19.8411 41.7748 20.1661C41.7168 20.4911 41.5385 20.7821 41.2398 21.0391L33.2313 28.0336L35.6213 38.3706C35.696 38.7439 35.6645 39.0816 35.5268 39.3836C35.3891 39.6856 35.1965 39.9373 34.9488 40.1386C34.6915 40.3176 34.391 40.4199 34.0473 40.4456C33.704 40.4709 33.3791 40.3884 33.0728 40.1981L23.9998 34.7176Z" fill="white"/>
</svg>
