<svg width="48" height="48" viewBox="0 0 48 48" fill="none" xmlns="http://www.w3.org/2000/svg">
<path d="M12.0002 40.299C9.71251 40.299 7.75751 39.4876 6.13517 37.865C4.51251 36.2426 3.70117 34.2876 3.70117 32V16C3.70117 13.7123 4.51251 11.7553 6.13517 10.129C7.75751 8.5023 9.71251 7.68896 12.0002 7.68896H36.0002C38.2878 7.68896 40.2448 8.5023 41.8712 10.129C43.4978 11.7553 44.3112 13.7123 44.3112 16V32C44.3112 34.2876 43.4978 36.2426 41.8712 37.865C40.2448 39.4876 38.2878 40.299 36.0002 40.299H12.0002ZM12.2992 16.3805H35.7612C36.7438 16.3805 37.672 16.5345 38.5457 16.8425C39.4197 17.1505 40.202 17.5878 40.8927 18.1545V16C40.8927 14.632 40.4193 13.4745 39.4727 12.5275C38.5257 11.5808 37.3682 11.1075 36.0002 11.1075H12.0002C10.6322 11.1075 9.47467 11.5808 8.52767 12.5275C7.58101 13.4745 7.10767 14.632 7.10767 16V18.1785C7.80634 17.6038 8.59667 17.1605 9.47867 16.8485C10.3603 16.5365 11.3005 16.3805 12.2992 16.3805ZM7.47317 23.527L30.8807 29.1695C31.146 29.2441 31.4175 29.2525 31.6952 29.1945C31.9732 29.1365 32.2115 29.0161 32.4102 28.8335L40.1232 22.361C39.6978 21.5863 39.0978 20.9656 38.3232 20.499C37.5485 20.0323 36.6945 19.799 35.7612 19.799H12.2992C11.1405 19.799 10.1152 20.1513 9.22317 20.856C8.33117 21.5606 7.74784 22.451 7.47317 23.527Z" fill="white"/>
</svg>
